<?xml version="1.0" standalone="no"?>
<!DOCTYPE svg PUBLIC "-//W3C//DTD SVG 20010904//EN"
 "http://www.w3.org/TR/2001/REC-SVG-20010904/DTD/svg10.dtd">
<svg version="1.0" xmlns="http://www.w3.org/2000/svg"
 width="472.000000pt" height="472.000000pt" viewBox="0 0 472.000000 472.000000"
 preserveAspectRatio="xMidYMid meet">
<metadata>
Created by potrace 1.11, written by Peter Selinger 2001-2013
</metadata>
<g transform="translate(0.000000,472.000000) scale(0.100000,-0.100000)"
fill="#000000" stroke="none">
<path d="M2340 3832 c-14 -2 -29 -7 -35 -12 -11 -8 -106 -59 -270 -145 -60
-32 -141 -74 -180 -95 -38 -20 -110 -59 -160 -85 -87 -46 -166 -88 -310 -165
-38 -21 -119 -63 -180 -95 -60 -32 -132 -70 -160 -85 -27 -15 -142 -76 -255
-135 -293 -155 -303 -161 -324 -188 -24 -32 -25 -94 -1 -130 16 -25 265 -156
763 -401 l82 -41 1 -60 c0 -33 0 -280 0 -550 0 -309 4 -502 10 -522 14 -44 46
-64 159 -101 167 -55 365 -95 575 -119 147 -16 591 -9 735 12 14 2 48 6 75 10
132 17 365 78 476 126 89 39 84 -2 85 643 0 549 1 569 20 580 18 11 89 48 346
184 64 34 120 62 125 62 4 0 8 -189 8 -420 0 -409 0 -420 -20 -430 -29 -16
-82 -90 -93 -130 -13 -50 -6 -124 17 -168 71 -140 248 -174 365 -71 105 92
105 256 0 348 l-39 35 -1 478 c0 263 2 482 5 486 3 5 20 17 38 27 43 25 65 80
53 127 -13 44 -39 69 -125 114 -110 57 -254 134 -289 153 -17 10 -89 48 -161
86 -71 37 -152 80 -180 95 -50 28 -116 63 -300 160 -55 29 -122 65 -150 80
-27 15 -113 60 -190 100 -77 40 -144 76 -150 80 -5 4 -68 38 -140 75 -71 37
-134 71 -140 75 -14 10 -56 16 -85 12z m169 -323 c75 -40 192 -102 261 -139
69 -37 166 -88 215 -115 202 -107 263 -139 320 -170 33 -18 105 -56 160 -85
55 -29 127 -67 160 -85 33 -18 101 -54 150 -80 50 -26 94 -51 98 -55 7 -6 -90
-60 -478 -265 -240 -127 -284 -150 -330 -175 -27 -15 -113 -60 -190 -100 -77
-40 -192 -101 -255 -135 -63 -33 -144 -76 -180 -94 l-65 -33 -220 112 c-121
62 -471 238 -778 392 -307 154 -557 282 -555 283 4 4 109 60 263 140 72 37
144 75 160 85 34 20 144 78 320 170 66 34 143 75 170 90 50 27 98 53 350 186
72 37 162 85 200 106 39 21 74 38 79 38 5 0 70 -32 145 -71z m688 -1819 l0
-449 -62 -21 c-34 -11 -72 -23 -86 -25 -13 -3 -33 -7 -44 -10 -131 -31 -283
-53 -430 -61 -95 -5 -337 -4 -405 1 -134 11 -185 16 -204 20 -12 2 -38 7 -59
10 -21 3 -73 12 -115 21 -42 9 -87 18 -98 20 -12 2 -52 13 -88 24 l-66 21 0
444 c0 245 2 445 5 445 7 0 3 2 442 -218 241 -121 373 -182 394 -182 28 0 131
49 354 170 28 15 109 58 180 96 72 37 162 85 200 106 39 20 73 37 76 38 3 0 6
-202 6 -450z"/>
</g>
</svg>
